<svg width="132" height="37" viewBox="0 0 132 37" fill="none" xmlns="http://www.w3.org/2000/svg">
<g clip-path="url(#clip0_448_285)">
<path d="M25.9431 12.8955C25.2989 12.9114 24.6583 12.7941 24.0602 12.5506C23.4619 12.3072 22.9185 11.9427 22.463 11.4794C22.0073 11.016 21.649 10.4633 21.4097 9.85491C21.1703 9.24649 21.055 8.59496 21.0705 7.93984C21.0987 6.07828 21.7295 4.27808 22.8653 2.81799C21.9814 2.61706 21.0749 2.53961 20.1704 2.58777C13.9453 2.58777 8.47407 6.85827 8.47407 17.3771C8.47407 25.9944 13.1202 31.9431 19.9441 31.9431C23.541 31.8343 27.0813 31.0052 30.3629 29.5034L30.7406 30.4188C26.7681 34.5354 21.972 36.9751 16.9454 36.9751C7.27671 36.9751 0.00542866 29.8045 0.00542866 19.208C-0.0550818 16.6825 0.390809 14.1709 1.31589 11.8265C2.24097 9.48204 3.62585 7.35378 5.38612 5.5715C7.14638 3.78922 9.24513 2.39027 11.5544 1.45995C13.8636 0.529626 16.335 0.0874395 18.8177 0.160335C25.868 0.160335 30.4378 3.66936 30.4378 7.78865C30.4831 8.42649 30.4017 9.06706 30.1984 9.67222C29.9952 10.2774 29.6744 10.8348 29.255 11.3113C28.8357 11.7878 28.3262 12.1736 27.7573 12.4457C27.1883 12.7179 26.5713 12.8709 25.9431 12.8955Z" fill="black"/>
<path d="M71.0682 34.7333V35.789H58.9217V30.8333L58.6257 30.6031C54.2193 34.8736 49.92 37.0055 45.8779 37.0055C39.0606 37.0055 36.5869 31.8196 36.5869 26.409V6.5617L32.001 3.73922V2.97775L44.2949 0L44.5975 0.230199V23.2786C44.5975 28.3105 46.1712 31.2106 50.8173 31.2106C53.4268 31.2303 56.0013 30.6019 58.3177 29.3799V6.56306L53.7478 3.74604V2.98457L66.0416 0.00679685L66.3376 0.237017V33.0946L71.0682 34.7333Z" fill="black"/>
<path d="M96.2073 10.1478C94.9774 10.1116 93.8027 9.619 92.9052 8.76283C92.0076 7.90667 91.4491 6.74609 91.3349 5.49995C90.1225 5.61423 88.9561 6.02804 87.937 6.70536C86.9179 7.38269 86.077 8.30305 85.4873 9.38632V33.075L90.6557 34.6754V35.7449H72.7461V34.6754L77.4673 33.075V7.20269L72.8212 3.77133V3.00985L84.7413 0.0321045L85.0372 0.262304L84.8109 7.50375L85.1135 7.73396C88.0212 2.7524 92.0889 0.160143 95.3809 0.160143C96.064 0.0958226 96.7528 0.178823 97.4022 0.403707C98.0516 0.628593 98.6471 0.990309 99.1497 1.46523C99.6522 1.94013 100.051 2.51755 100.319 3.15976C100.587 3.80196 100.719 4.49449 100.706 5.1921C100.761 5.82481 100.685 6.46223 100.484 7.0634C100.282 7.66456 99.959 8.21618 99.5354 8.68286C99.1117 9.14952 98.5968 9.52094 98.0237 9.77322C97.4506 10.0255 96.8318 10.1531 96.2073 10.1478Z" fill="black"/>
<path d="M108.743 19.7531C109.546 28.211 113.149 31.9557 119.765 31.9557C123.66 31.8807 127.505 31.0527 131.096 29.516L131.549 30.4314C126.972 34.4717 121.88 36.9875 117.07 36.9875C106.796 36.9875 100.074 29.8169 100.074 19.2204C100.074 8.3365 108.176 0.160583 117.317 0.160583C127.213 0.160583 132.009 6.94707 131.934 15.943L108.743 19.7531ZM123.505 13.5169C123.202 6.35314 121.194 2.29924 116.769 2.29924C112.495 2.29924 109.089 6.78087 108.693 13.6695C108.63 14.8669 108.605 17.2112 108.599 17.3474L123.505 13.5169Z" fill="black"/>
</g>
<defs>
<clipPath id="clip0_448_285">
<rect width="132" height="37" fill="white"/>
</clipPath>
</defs>
</svg>
