<svg width="96" height="27" viewBox="0 0 96 27" fill="none" xmlns="http://www.w3.org/2000/svg">
<path d="M18.8677 9.41022C18.3992 9.4218 17.9333 9.33618 17.4983 9.15854C17.0632 8.9809 16.668 8.71495 16.3367 8.37681C16.0053 8.03867 15.7447 7.63539 15.5707 7.1914C15.3966 6.74742 15.3127 6.27198 15.324 5.79392C15.3445 4.43548 15.8033 3.12182 16.6293 2.05635C15.9865 1.90973 15.3272 1.85321 14.6694 1.88835C10.142 1.88835 6.16296 5.00466 6.16296 12.6806C6.16296 18.9689 9.54199 23.3098 14.5048 23.3098C17.1207 23.2304 19.6955 22.6254 22.0821 21.5295L22.3568 22.1975C19.4677 25.2015 15.9796 26.9818 12.3239 26.9818C5.29215 26.9818 0.00394812 21.7492 0.00394812 14.0166C-0.0400595 12.1737 0.284225 10.3409 0.95701 8.63013C1.6298 6.91931 2.63698 5.36625 3.91718 4.06567C5.19737 2.76509 6.72373 1.74423 8.40318 1.06535C10.0826 0.386464 11.88 0.0637873 13.6856 0.116981C18.8131 0.116981 22.1366 2.67762 22.1366 5.68359C22.1695 6.14904 22.1103 6.61648 21.9625 7.05809C21.8147 7.49971 21.5814 7.90648 21.2764 8.25418C20.9714 8.60188 20.6009 8.8834 20.1871 9.082C19.7733 9.28061 19.3246 9.39223 18.8677 9.41022Z" fill="black" style="fill:black;fill-opacity:1;"/>
<path d="M51.6859 25.3459V26.1163H42.8521V22.5L42.6368 22.332C39.4322 25.4483 36.3054 27.004 33.3657 27.004C28.4077 27.004 26.6086 23.2197 26.6086 19.2714V4.78827L23.2734 2.72862V2.17295L32.2144 0L32.4345 0.167983V16.9871C32.4345 20.659 33.579 22.7753 36.958 22.7753C38.8558 22.7897 40.7282 22.3311 42.4128 21.4394V4.78926L39.0893 2.7336V2.17793L48.0302 0.00495986L48.2455 0.172958V24.1501L51.6859 25.3459Z" fill="black" style="fill:black;fill-opacity:1;"/>
<path d="M69.9689 7.40514C69.0744 7.37875 68.2201 7.01928 67.5674 6.39451C66.9146 5.76974 66.5084 4.92283 66.4253 4.01349C65.5436 4.09688 64.6953 4.39885 63.9541 4.89311C63.213 5.38738 62.6014 6.05899 62.1725 6.84949V24.1358L65.9314 25.3037V26.0841H52.9062V25.3037L56.3398 24.1358V5.25603L52.9608 2.75206V2.19639L61.63 0.0234375L61.8452 0.191421L61.6806 5.47572L61.9007 5.64371C64.0154 2.00852 66.9737 0.116871 69.3679 0.116871C69.8647 0.0699345 70.3656 0.130502 70.8379 0.294607C71.3102 0.458713 71.7433 0.722668 72.1088 1.06923C72.4743 1.41578 72.7641 1.83714 72.9592 2.30578C73.1542 2.77441 73.2502 3.27977 73.2408 3.78884C73.2807 4.25055 73.2256 4.71569 73.079 5.15438C72.9323 5.59307 72.6974 5.9956 72.3893 6.33615C72.0812 6.67669 71.7067 6.94772 71.2899 7.13182C70.8731 7.31592 70.4231 7.40902 69.9689 7.40514Z" fill="black" style="fill:black;fill-opacity:1;"/>
<path d="M79.0854 14.4144C79.6698 20.5864 82.2901 23.319 87.1019 23.319C89.9346 23.2643 92.7311 22.6601 95.3425 21.5387L95.6717 22.2067C92.3434 25.155 88.64 26.9909 85.1421 26.9909C77.67 26.9909 72.7812 21.7583 72.7812 14.0257C72.7812 6.0834 78.6734 0.117188 85.3213 0.117188C92.5187 0.117188 96.0068 5.06949 95.9523 11.6341L79.0854 14.4144ZM89.8215 9.86372C89.6014 4.63608 88.1412 1.67783 84.9229 1.67783C81.8147 1.67783 79.3377 4.94821 79.0493 9.97505C79.0036 10.8488 78.9851 12.5595 78.9812 12.6589L89.8215 9.86372Z" fill="black" style="fill:black;fill-opacity:1;"/>
</svg>
