<svg width="135" height="46" viewBox="0 0 135 46" fill="none" xmlns="http://www.w3.org/2000/svg">
<g clip-path="url(#clip0_448_278)">
<path d="M15.4381 4.88405C14.6921 3.81705 14.4241 3.44305 13.7311 3.44305C11.9691 3.44305 7.59214 6.43305 12.2361 14.919L20.4561 14.919L20.4561 17.589L12.3961 17.589L12.3961 36.377C12.3961 41.716 13.0361 42.303 17.7871 42.783L17.7871 43.636L0.119141 43.636L0.119141 42.782C3.69614 42.301 3.74914 41.715 3.74914 36.376L3.74914 17.588L0.119139 17.588L0.119139 14.918L3.74914 14.918L3.74914 14.704C3.76585 11.125 5.16244 7.69039 7.64811 5.1153C10.1338 2.54022 13.5169 1.02317 17.0931 0.880046C21.3631 0.880046 23.8721 3.38805 23.8721 5.84305C23.9028 6.30452 23.8363 6.76728 23.6769 7.20143C23.5175 7.63559 23.2688 8.03147 22.9469 8.3635C22.6249 8.69553 22.2369 8.95632 21.8079 9.12901C21.3788 9.3017 20.9183 9.38245 20.4561 9.36605C19.8939 9.42675 19.326 9.32892 18.8165 9.08363C18.307 8.83834 17.8763 8.45537 17.5731 7.97805L15.4381 4.88405Z" fill="black"/>
<path d="M32.361 36.377C32.361 41.716 32.628 42.303 36.738 42.783L36.738 43.636L20.084 43.636L20.084 42.782C23.661 42.301 23.714 41.715 23.714 36.376L23.714 24.42C23.714 19.72 23.607 19.242 20.084 19.083L20.084 18.228L32.04 14.493L32.2 20.577C34.175 18.016 36.63 14.598 39.993 14.598C40.6275 14.5478 41.2655 14.6342 41.8639 14.8512C42.4622 15.0682 43.0072 15.411 43.462 15.8563C43.9168 16.3016 44.2709 16.8392 44.5005 17.4329C44.7301 18.0266 44.8298 18.6626 44.793 19.298C44.793 22.498 42.658 24.423 40.523 24.423C40.0392 24.4874 39.5475 24.3984 39.1169 24.1686C38.6864 23.9388 38.3388 23.5798 38.123 23.142L36.575 21.061C35.829 20.047 35.614 19.994 35.187 19.994C34.5977 20.1452 34.0442 20.4117 33.5586 20.7781C33.073 21.1446 32.6649 21.6038 32.358 22.129L32.358 36.377L32.361 36.377Z" fill="black"/>
<path d="M47.4649 38.307C42.7039 30.645 44.5559 21.387 51.0849 17.331C57.0699 13.612 63.3759 14.658 67.4049 20.639L51.4969 30.524C51.7219 30.886 51.9019 31.278 52.1269 31.639C55.8459 37.624 61.6929 38.639 66.6349 35.57C68.9459 34.134 71.0869 31.61 71.6069 29.212L72.4329 29.327C72.6079 33.555 71.4869 39.843 66.0929 43.195C58.9709 47.619 51.6349 45.015 47.4649 38.307ZM50.4549 28.655L59.4769 23.049C57.1889 19.569 54.2179 18.023 51.5429 19.684C48.7319 21.43 48.4899 24.784 50.4549 28.653L50.4549 28.655Z" fill="black"/>
<path d="M71.0869 19.4011L83.0429 15.6661L83.2569 21.2171C84.8569 18.4941 87.2069 15.6171 91.9049 15.6171C96.2819 15.6171 100.124 18.6591 100.124 25.7581L100.124 37.5581C100.124 42.8971 100.177 43.4841 103.754 43.9641L103.754 44.8181L88.4889 44.8181L88.4889 43.9641C91.4239 43.4831 91.4779 42.8971 91.4779 37.5581L91.4779 27.3021C91.4779 23.3531 89.7709 21.2181 87.1009 21.2181C86.4132 21.1954 85.728 21.3112 85.086 21.5588C84.444 21.8063 83.8583 22.1805 83.3639 22.6591L83.3639 37.5511C83.3639 42.8901 83.4169 43.4771 86.4079 43.9571L86.4079 44.8111L71.0869 44.8111L71.0869 43.9571C74.6639 43.4761 74.7169 42.8901 74.7169 37.5511L74.7169 25.5941C74.7169 20.8941 74.6099 20.4161 71.0869 20.2571L71.0869 19.4011Z" fill="black"/>
<path d="M118.224 5.63001L118.224 4.77601L131.088 0.876013C131.035 3.65101 130.874 7.49501 130.874 12.832L130.874 35.197C130.874 39.897 130.981 40.375 134.504 40.536L134.504 41.39L123.241 45.29L122.493 39.951C121.319 42.3 118.223 45.502 113.9 45.502C107.335 45.502 103.064 38.883 103.064 31.678C103.064 21.856 109.63 15.611 116.836 15.611C118.804 15.5877 120.716 16.2683 122.227 17.53L122.227 10.858C122.227 6.16401 122.174 5.79101 118.224 5.63001ZM111.765 27.515C111.765 33.761 114.379 39.952 118.865 39.952C119.487 40.0168 120.115 39.9347 120.7 39.7122C121.284 39.4897 121.808 39.1331 122.229 38.671L122.229 20.31C121.776 19.4718 121.105 18.7712 120.288 18.282C119.47 17.7928 118.536 17.533 117.583 17.53C114.167 17.53 111.765 20.736 111.765 27.515Z" fill="black"/>
</g>
<defs>
<clipPath id="clip0_448_278">
<rect width="44.623" height="134.385" fill="white" transform="translate(0.119141 45.504) rotate(-90)"/>
</clipPath>
</defs>
</svg>
