<svg xmlns="http://www.w3.org/2000/svg" width="44.623" height="134.385" id="verticalLogo" class=" m-[20px] mb-10 fill-skin-logo-side transition-opacity"><g data-name="Group 18261"><path data-name="Path 623" d="M40.62 15.319c1.067-.746 1.441-1.014 1.441-1.707 0-1.762-2.99-6.139-11.476-1.495v8.22h-2.67v-8.06H9.127c-5.339 0-5.926.64-6.406 5.391h-.853V0h.854c.481 3.577 1.067 3.63 6.406 3.63h18.788V0h2.67v3.63h.214a13.9 13.9 0 0 1 13.824 13.344c0 4.27-2.508 6.779-4.963 6.779a3.306 3.306 0 0 1-3.523-3.416 3.03 3.03 0 0 1 1.388-2.883Z"></path><path data-name="Path 624" d="M9.127 32.242c-5.339 0-5.926.267-6.406 4.377h-.853V19.965h.854c.481 3.577 1.067 3.63 6.406 3.63h11.956c4.7 0 5.178-.107 5.337-3.63h.855l3.735 11.956-6.084.16c2.561 1.975 5.979 4.43 5.979 7.793a4.456 4.456 0 0 1-4.7 4.8c-3.2 0-5.125-2.135-5.125-4.27a2.333 2.333 0 0 1 1.281-2.4l2.081-1.548c1.014-.746 1.067-.961 1.067-1.388a4.6 4.6 0 0 0-2.135-2.829H9.127Z"></path></g><path data-name="Path 625" d="M7.197 47.346c7.662-4.761 16.92-2.909 20.976 3.62 3.719 5.985 2.673 12.291-3.308 16.32L14.98 51.378c-.362.225-.754.405-1.115.63-5.985 3.719-7 9.566-3.931 14.508 1.436 2.311 3.96 4.452 6.358 4.972l-.115.826c-4.228.175-10.516-.946-13.868-6.34-4.424-7.122-1.82-14.458 4.888-18.628Zm9.652 2.99 5.606 9.022c3.48-2.288 5.026-5.259 3.365-7.934-1.746-2.811-5.1-3.053-8.969-1.088Z"></path><path data-name="Path 626" d="m26.103 70.968 3.735 11.956-5.551.214c2.723 1.6 5.6 3.95 5.6 8.648 0 4.377-3.042 8.219-10.141 8.219h-11.8c-5.339 0-5.926.053-6.406 3.63H.686V88.37h.854c.481 2.935 1.067 2.989 6.406 2.989h10.256c3.949 0 6.084-1.707 6.084-4.377a5.13 5.13 0 0 0-1.441-3.737H7.953c-5.339 0-5.926.053-6.406 3.044H.693V70.968h.854c.481 3.577 1.067 3.63 6.406 3.63H19.91c4.7 0 5.178-.107 5.337-3.63Z"></path><path data-name="Path 627" d="M39.874 118.105h.854l3.9 12.864c-2.775-.053-6.619-.214-11.956-.214H10.307c-4.7 0-5.178.107-5.339 3.63h-.854l-3.9-11.263 5.339-.748c-2.349-1.174-5.551-4.27-5.551-8.593 0-6.565 6.619-10.836 13.824-10.836 9.822 0 16.067 6.566 16.067 13.772a8.258 8.258 0 0 1-1.919 5.391h6.672c4.694 0 5.067-.053 5.228-4.003Zm-21.885-6.459c-6.246 0-12.437 2.614-12.437 7.1a3.992 3.992 0 0 0 1.281 3.364h18.361a5.3 5.3 0 0 0 2.78-4.646c0-3.416-3.206-5.818-9.985-5.818Z"></path></svg>